@startuml
'https://plantuml.com/class-diagram

package "TestPackage" #FFF{
    package "Entity" #EEEEEE {
    abstract class AbstractList
abstract AbstractCollection
interface List
interface Collection

List <|-- AbstractList
Collection <|-- AbstractCollection

Collection <|- List
AbstractCollection <|- AbstractList
AbstractList <|-- ArrayList

class ArrayList {
Object[] elementData
size()
}

enum TimeUnit {
DAYS
HOURS
MINUTES
}
    }
    package "Use Case" #EEEEEE {

    }
}

@enduml